<svg id="Layer_1" data-name="Layer 1" xmlns="http://www.w3.org/2000/svg" viewBox="0 0 776 253.44"><defs><style>.cls-1,.cls-2,.cls-3{isolation:isolate;}.cls-2,.cls-3{font-size:60.63px;font-family:Poppins-Medium, Poppins;font-weight:500;}.cls-2{fill:#434343;}.cls-3,.cls-4{fill:#6652ff;}</style></defs><title>Proj_Conf_ntfy_logo</title><g id="Conference_Notify" data-name="Conference Notify" class="cls-1"><text class="cls-2" transform="translate(199.29 149.54)">Conference </text><text class="cls-3" transform="translate(571.34 149.54)">Notify</text></g><g id="team"><g id="Group_2" data-name="Group 2"><g id="Group_1" data-name="Group 1"><circle id="Ellipse_2" data-name="Ellipse 2" class="cls-4" cx="99.51" cy="72.44" r="12.52"/></g></g><g id="Group_4" data-name="Group 4"><g id="Group_3" data-name="Group 3"><path id="Path_1" data-name="Path 1" class="cls-4" d="M119.84,77a20.83,20.83,0,0,1-40.65,0A16.7,16.7,0,0,0,66.12,93.32V110a8.35,8.35,0,1,0,16.7,0v-8.35h33.4V110a8.35,8.35,0,0,0,16.7,0V93.32A16.72,16.72,0,0,0,119.84,77Z"/></g></g><g id="Group_6" data-name="Group 6"><g id="Group_5" data-name="Group 5"><path id="Path_2" data-name="Path 2" class="cls-4" d="M164.22,162a12.52,12.52,0,1,0-12.72,21.58l.2.11a12.84,12.84,0,0,0,17.38-4.58A12.62,12.62,0,0,0,164.22,162Z"/></g></g><g id="Group_8" data-name="Group 8"><g id="Group_7" data-name="Group 7"><path id="Path_3" data-name="Path 3" class="cls-4" d="M156.58,133.44l-14.46-8.35a8.35,8.35,0,1,0-8.35,14.46l7.23,4.18-16.7,28.92-7.23-4.18a8.35,8.35,0,0,0-8.35,14.47l14.46,8.34a16.71,16.71,0,0,0,20.64-3.18,20.82,20.82,0,0,1,20.32-35.2A16.71,16.71,0,0,0,156.58,133.44Z"/></g></g><g id="Group_10" data-name="Group 10"><g id="Group_9" data-name="Group 9"><path id="Path_4" data-name="Path 4" class="cls-4" d="M51.92,166.53a12.65,12.65,0,0,0-22,12.54,12.86,12.86,0,0,0,17.39,4.58,12.52,12.52,0,0,0,4.59-17.11Z"/></g></g><g id="Group_12" data-name="Group 12"><g id="Group_11" data-name="Group 11"><path id="Path_5" data-name="Path 5" class="cls-4" d="M93.36,171.53A8.35,8.35,0,0,0,82,168.47l-7.23,4.18L58,143.72l7.24-4.17a8.35,8.35,0,0,0-8.35-14.46l-14.46,8.35A16.71,16.71,0,0,0,34.9,152.9a20.82,20.82,0,0,1,20.31,35.21,16.71,16.71,0,0,0,20.63,3.19L90.31,183A8.37,8.37,0,0,0,93.36,171.53Z"/></g></g></g></svg>